<svg width="40" height="40" viewBox="0 0 40 40" fill="none" xmlns="http://www.w3.org/2000/svg">
<path d="M36.6358 2.15328L34.8258 0.343281C34.606 0.123515 34.308 0 33.9971 0C33.6863 0 33.3882 0.123515 33.1685 0.343281L12.6683 20.8434L12.6164 20.7914C12.3966 20.5717 12.0986 20.4482 11.7878 20.4482C11.477 20.4482 11.1789 20.5717 10.9592 20.7914L3.00242 28.7483C2.63945 29.1113 2.43945 29.5939 2.43945 30.1071C2.43945 30.6204 2.63945 31.103 3.00234 31.4659L4.46515 32.9287C5.11179 33.5752 6.10835 33.6638 6.85101 33.1941L9.24538 35.5884C8.77569 36.3309 8.86413 37.3277 9.51077 37.9745L10.9735 39.4371C11.3365 39.8001 11.819 40 12.3323 40C12.8455 40 13.3281 39.8002 13.6912 39.4372L21.648 31.4803C22.0461 31.0824 22.0975 30.4696 21.8032 30.0155L23.0019 29.4088C24.0603 28.8733 24.723 27.8038 24.7318 26.6175L24.7428 25.0902C24.7449 24.7855 24.9152 24.5107 25.1871 24.3732L26.5496 23.6836C27.6081 23.1481 28.2708 22.0785 28.2794 20.8924L28.2905 19.365C28.2926 19.0604 28.4628 18.7856 28.7348 18.648L30.0975 17.9583C31.1559 17.4227 31.8186 16.3531 31.8272 15.167L31.8382 13.6398C31.8403 13.3351 32.0106 13.0604 32.2824 12.9229L33.6452 12.2331C34.7036 11.6976 35.3663 10.6279 35.3749 9.44178L35.386 7.91459C35.3881 7.60991 35.5584 7.33514 35.8302 7.19756C36.743 6.73561 37.359 5.89132 37.5204 4.88124C37.6814 3.87085 37.3591 2.87664 36.6358 2.15328ZM12.3323 37.4813L11.4336 36.5827C11.9033 35.8401 11.8148 34.8434 11.1681 34.1967L8.24272 31.2713C7.87976 30.9084 7.39726 30.7085 6.88398 30.7085C6.51452 30.7085 6.16085 30.8121 5.85648 31.0055L4.95812 30.1071L11.7878 23.2775L19.1621 30.6517L12.3323 37.4813ZM35.2056 4.51124C35.1642 4.77069 35.006 4.98757 34.7715 5.10624C33.7131 5.64186 33.0504 6.71147 33.0418 7.89756L33.0308 9.42475C33.0287 9.72943 32.8584 10.0042 32.5865 10.1417L31.2236 10.8315C30.1654 11.3671 29.5027 12.4367 29.4941 13.6228L29.4831 15.15C29.481 15.4547 29.3106 15.7294 29.0388 15.867L27.6761 16.5567C26.6177 17.0922 25.955 18.1618 25.9464 19.3479L25.9353 20.8753C25.9332 21.18 25.7629 21.4547 25.491 21.5923L24.1283 22.282C23.07 22.8176 22.4072 23.8871 22.3986 25.0733L22.3876 26.6006C22.3854 26.9053 22.2152 27.18 21.9432 27.3176L20.0834 28.2589L14.3253 22.5007L33.9971 2.82914L34.9785 3.81054C35.1643 3.99632 35.247 4.25171 35.2056 4.51124Z" fill="white"/>
<path d="M16.3801 30.0282L12.4109 26.0591C11.9534 25.6014 11.2113 25.6014 10.7537 26.0591L8.40525 28.4075C7.9476 28.8652 7.9476 29.6071 8.40525 30.0648L12.3744 34.0339C12.6032 34.2627 12.9031 34.3772 13.2031 34.3772C13.503 34.3772 13.8029 34.2628 14.0316 34.0339L16.3801 31.6855C16.8377 31.2278 16.8377 30.4858 16.3801 30.0282ZM13.2031 31.548L10.8912 29.2362L11.5824 28.5451L13.8942 30.8569L13.2031 31.548Z" fill="white"/>
</svg>
