<svg width="40" height="40" viewBox="0 0 40 40" fill="none" xmlns="http://www.w3.org/2000/svg">
<path d="M38.7194 30.3883H36.4495C35.8795 28.1836 33.8728 26.55 31.4921 26.55C29.1121 26.55 27.1059 28.1836 26.5361 30.3883H17.1874C16.6176 28.1836 14.6114 26.55 12.2307 26.55C9.40812 26.55 7.11182 28.8464 7.11182 31.6682C7.11182 34.4908 9.40812 36.7871 12.2307 36.7871C14.6114 36.7871 16.6177 35.1533 17.1875 32.9481H26.5359C27.1057 35.1533 29.1119 36.7871 31.492 36.7871C33.8728 36.7871 35.8796 35.1533 36.4495 32.9481H38.7193C39.4258 32.9481 39.9999 32.3754 39.9999 31.6682C39.9999 30.961 39.4266 30.3883 38.7194 30.3883ZM12.2307 34.2273C10.8197 34.2273 9.67156 33.0791 9.67156 31.6682C9.67156 30.2573 10.8197 29.1098 12.2307 29.1098C13.6416 29.1098 14.7897 30.2572 14.7898 31.6681V31.6682V31.6683C14.7897 33.0792 13.6416 34.2273 12.2307 34.2273ZM31.4921 34.2273C30.0819 34.2273 28.9344 33.0791 28.9344 31.6682C28.9344 30.2573 30.0819 29.1098 31.4921 29.1098C32.9031 29.1098 34.0512 30.2573 34.0512 31.6682C34.0512 33.0791 32.9031 34.2273 31.4921 34.2273Z" fill="white"/>
<path d="M26.0259 21.814C26.0259 22.5212 26.5986 23.0939 27.3058 23.0939H35.0191C35.7263 23.0939 36.2997 22.5212 36.2997 21.814C36.2997 21.1068 35.7263 20.5341 35.0191 20.5341H28.5857V13.1806H33.6297C34.6246 15.0644 37.4396 21.538 37.4396 23.7581V28.1552C37.4396 28.8623 38.0123 29.4351 38.7195 29.4351C39.426 29.4351 39.9994 28.8623 39.9994 28.1552V23.7581C39.9994 20.5778 36.1119 11.8633 35.2459 10.9967C35.0053 10.756 34.6795 10.6216 34.3405 10.6216H27.3059C26.5988 10.6216 26.026 11.1943 26.026 11.9015V21.814H26.0259Z" fill="white"/>
<path d="M20.645 24.5922L26.1944 8.51666C26.4252 7.8483 26.0703 7.11956 25.4019 6.88871C24.7328 6.65988 24.0055 7.01347 23.7739 7.6812L18.522 22.8943H4.96741C4.26093 22.8943 3.6875 23.467 3.6875 24.1742V29.5884C3.6875 30.2956 4.26023 30.8683 4.96741 30.8683C5.67459 30.8683 6.24732 30.2956 6.24732 29.5884V25.4541H19.4352C19.9808 25.454 20.4668 25.108 20.645 24.5922Z" fill="white"/>
<path d="M24.7171 23.8926C24.01 23.8926 23.4365 24.4653 23.4365 25.1725C23.4365 25.8797 24.0099 26.4524 24.7171 26.4524H26.6314C27.3386 26.4524 27.912 25.8797 27.912 25.1725C27.912 24.4653 27.3387 23.8926 26.6314 23.8926H24.7171Z" fill="white"/>
<path d="M11.717 20.6714C11.717 19.9642 11.1442 19.3915 10.4371 19.3915C5.55742 19.3915 3.27424 15.601 2.65097 14.344L5.32586 6.21339C14.1637 4.23185 19.6321 9.60656 19.883 9.8589C20.3767 10.3623 21.1858 10.3705 21.6912 9.87695C22.1959 9.38258 22.2049 8.57282 21.7105 8.06736C21.4305 7.78103 14.7336 1.09313 4.00775 3.89904C3.5869 4.00927 3.25135 4.32474 3.11542 4.73723L0.0634939 14.0168C-0.0286927 14.2997 -0.0204115 14.6062 0.0877905 14.8828C0.200133 15.1713 2.93667 21.9507 10.4371 21.9507C11.1443 21.9506 11.717 21.3786 11.717 20.6714Z" fill="white"/>
</svg>
