<svg width="40" height="40" viewBox="0 0 40 40" fill="none" xmlns="http://www.w3.org/2000/svg">
<g clip-path="url(#clip0_131_729)">
<path d="M36.9291 27.1627C35.222 25.9991 33.1106 25.6493 31.1473 26.1758L26.0365 21.065L27.9848 18.3373C28.24 17.9802 28.2741 17.5103 28.0732 17.12C27.8724 16.7297 27.4702 16.4844 27.0312 16.4844H23.7732L25.8366 6.16734C25.945 5.62563 25.6603 5.0818 25.1534 4.86219C24.6465 4.64258 24.055 4.8068 23.7339 5.25633L18.1064 13.1348L13.8243 8.85266C14.3509 6.88922 14.0013 4.77812 12.8381 3.07148C11.5272 1.14828 9.35641 0 7.03125 0C6.14484 0 5.28023 0.163125 4.46125 0.484844C4.09344 0.629297 3.8232 0.949531 3.7425 1.33641C3.6618 1.72328 3.78156 2.12477 4.06109 2.40422L6.20258 4.5457C6.65937 5.0025 6.65937 5.74578 6.20258 6.20266C5.74469 6.66055 5.00359 6.66062 4.54562 6.20266L2.40414 4.06109C2.12469 3.78164 1.72328 3.66188 1.33633 3.7425C0.949453 3.82312 0.629297 4.09336 0.484766 4.46125C0.163125 5.28023 0 6.14484 0 7.03125C0 9.35625 1.14797 11.5267 3.07086 12.8373C4.77812 14.0009 6.88945 14.3507 8.85273 13.8242L13.9635 18.935L12.0152 21.6627C11.76 22.0198 11.7259 22.4897 11.9268 22.88C12.1276 23.2703 12.5298 23.5156 12.9688 23.5156H16.2268L14.1634 33.8327C14.055 34.3744 14.3397 34.9182 14.8466 35.1378C15.3516 35.3566 15.9438 35.1948 16.2661 34.7437L21.8936 26.8652L26.1757 31.1473C25.6491 33.1107 25.9987 35.2218 27.1619 36.9284C28.4728 38.8517 30.6436 40 32.9688 40C33.8552 40 34.7198 39.8369 35.5387 39.5152C35.9066 39.3706 36.1768 39.0505 36.2575 38.6636C36.3382 38.2767 36.2184 37.8752 35.9389 37.5958L33.7974 35.4543C33.3406 34.9975 33.3406 34.2541 33.7974 33.7973C34.2553 33.3395 34.9965 33.3394 35.4544 33.7973L37.5959 35.9388C37.8753 36.2183 38.2766 36.338 38.6637 36.2574C39.0505 36.1768 39.3707 35.9066 39.5152 35.5387C39.8369 34.7198 40 33.8552 40 32.9688C40 30.6437 38.852 28.4733 36.9291 27.1627ZM10.0014 11.6583C9.67188 11.3287 9.17805 11.2257 8.7443 11.3962C7.28227 11.9705 5.69555 11.7898 4.39086 10.9005C3.17109 10.0693 2.43906 8.77781 2.35242 7.32391L2.88836 7.85984C4.26211 9.23367 6.48586 9.23383 7.85984 7.85984C9.23047 6.48922 9.23047 4.25898 7.85984 2.88836L7.32391 2.35242C8.77797 2.43914 10.0698 3.17141 10.9013 4.39148C11.7902 5.69562 11.9705 7.28211 11.3962 8.74422C11.2257 9.17813 11.3287 9.67172 11.6583 10.0013L16.7252 15.0684L15.3445 17.0015L10.0014 11.6583ZM18.5625 21.6008C18.3399 21.3293 18.0073 21.1719 17.6562 21.1719H15.2459L22.4677 11.0615L21.1947 17.4264C21.1259 17.7706 21.215 18.1277 21.4376 18.3991C21.6602 18.6706 21.9927 18.8281 22.3438 18.8281H24.7541L17.5323 28.9385L18.8053 22.5736C18.8742 22.2293 18.7851 21.8723 18.5625 21.6008ZM37.1116 32.1402C35.7378 30.7663 33.5141 30.7662 32.1401 32.1402C30.7695 33.5108 30.7695 35.741 32.1401 37.1116L32.676 37.6476C31.222 37.5609 29.9302 36.8286 29.0986 35.6084C28.2098 34.3043 28.0294 32.7178 28.6037 31.2557C28.7742 30.8219 28.6713 30.3282 28.3416 29.9986L23.2747 24.9316L24.6555 22.9985L29.9987 28.3417C30.3283 28.6713 30.822 28.7742 31.2558 28.6038C32.7177 28.0295 34.3045 28.2102 35.6092 29.0995C36.8289 29.9308 37.5609 31.2223 37.6476 32.6761L37.1116 32.1402Z" fill="white"/>
</g>
<defs>
<clipPath id="clip0_131_729">
<rect width="40" height="40" fill="white"/>
</clipPath>
</defs>
</svg>
