<svg width="40" height="40" viewBox="0 0 40 40" fill="none" xmlns="http://www.w3.org/2000/svg">
<path d="M36.4844 3.59351H3.51562C1.57711 3.59351 0 5.17062 0 7.10913V18.8279C0 20.7664 1.57711 22.3435 3.51562 22.3435H36.4844C38.4229 22.3435 40 20.7664 40 18.8279V7.10913C40 5.17062 38.4229 3.59351 36.4844 3.59351ZM37.6562 18.8279C37.6562 19.4741 37.1305 19.9998 36.4844 19.9998H3.51562C2.86945 19.9998 2.34375 19.4741 2.34375 18.8279V7.10913C2.34375 6.46296 2.86945 5.93726 3.51562 5.93726H36.4844C37.1305 5.93726 37.6562 6.46296 37.6562 7.10913V18.8279Z" fill="white"/>
<path d="M34.1406 15.3123H5.85938C5.21219 15.3123 4.6875 15.8369 4.6875 16.4841C4.6875 17.1313 5.21219 17.656 5.85938 17.656H34.1406C34.7878 17.656 35.3125 17.1313 35.3125 16.4841C35.3125 15.8369 34.7878 15.3123 34.1406 15.3123Z" fill="white"/>
<path d="M29.4531 12.9685C30.1003 12.9685 30.625 12.4438 30.625 11.7966C30.625 11.1494 30.1003 10.6248 29.4531 10.6248C28.8059 10.6248 28.2812 11.1494 28.2812 11.7966C28.2812 12.4438 28.8059 12.9685 29.4531 12.9685Z" fill="white"/>
<path d="M34.1406 12.9685C34.7878 12.9685 35.3125 12.4438 35.3125 11.7966C35.3125 11.1494 34.7878 10.6248 34.1406 10.6248C33.4934 10.6248 32.9688 11.1494 32.9688 11.7966C32.9688 12.4438 33.4934 12.9685 34.1406 12.9685Z" fill="white"/>
<path d="M6.4618 36.2823C9.73 34.6482 11.7971 31.3071 11.7971 27.6496V25.8591C11.7971 25.2119 11.2724 24.6873 10.6252 24.6873C9.97805 24.6873 9.45336 25.2119 9.45336 25.8591V27.6496C9.45336 30.4355 7.90547 32.9401 5.41368 34.186C4.83477 34.4755 4.60016 35.1794 4.88961 35.7583C5.17907 36.3373 5.88305 36.5717 6.4618 36.2823Z" fill="white"/>
<path d="M29.375 24.6873C28.7278 24.6873 28.2031 25.2119 28.2031 25.8591V27.6496C28.2031 31.3038 30.267 34.6466 33.5384 36.2823C34.1184 36.5723 34.8217 36.336 35.1106 35.7583C35.4001 35.1794 35.1655 34.4755 34.5866 34.186C32.0948 32.9401 30.5469 30.4355 30.5469 27.6496V25.8591C30.5469 25.2119 30.0222 24.6873 29.375 24.6873Z" fill="white"/>
<path d="M21.1719 35.2341V25.8591C21.1719 25.2119 20.6472 24.6873 20 24.6873C19.3528 24.6873 18.8281 25.2119 18.8281 25.8591V35.2341C18.8281 35.8813 19.3528 36.406 20 36.406C20.6472 36.406 21.1719 35.8813 21.1719 35.2341Z" fill="white"/>
<path d="M25.8594 35.2341V25.8591C25.8594 25.2119 25.3347 24.6873 24.6875 24.6873C24.0403 24.6873 23.5156 25.2119 23.5156 25.8591V35.2341C23.5156 35.8813 24.0403 36.406 24.6875 36.406C25.3347 36.406 25.8594 35.8813 25.8594 35.2341Z" fill="white"/>
<path d="M16.4844 35.2341V25.8591C16.4844 25.2119 15.9597 24.6873 15.3125 24.6873C14.6653 24.6873 14.1406 25.2119 14.1406 25.8591V35.2341C14.1406 35.8813 14.6653 36.406 15.3125 36.406C15.9597 36.406 16.4844 35.8813 16.4844 35.2341Z" fill="white"/>
</svg>
