<svg width="40" height="40" viewBox="0 0 40 40" fill="none" xmlns="http://www.w3.org/2000/svg">
<g clip-path="url(#clip0_131_790)">
<path d="M40 18.8281C40 11.844 35.7604 0 29.375 0C24.8905 0 21.8134 5.81523 20.3679 10.1201C19.8606 9.85406 19.3102 9.65961 18.7296 9.55164C18.2239 6.83164 15.833 4.76562 12.9688 4.76562C10.1051 4.76562 7.71461 6.83063 7.20828 9.54977C4.52578 10.0384 2.34375 12.3879 2.34375 15.3125C2.34375 16.0368 2.4757 16.7457 2.73078 17.4103C1.05789 18.4673 0 20.3188 0 22.3438C0 25.5746 2.62852 28.2031 5.85938 28.2031C7.14937 28.2031 8.42469 27.7682 9.44734 27.0056C10.1443 27.5367 10.9473 27.9045 11.7969 28.0818V32.9688H10.5997C9.49344 31.5083 7.73461 30.625 5.85938 30.625C2.62852 30.625 0 33.2535 0 36.4844V38.8281C0 39.4753 0.524687 40 1.17188 40H38.8281C39.4753 40 40 39.4753 40 38.8281C40 35.5973 37.3715 32.9688 34.1406 32.9688H30.5469V28.183C36.6792 27.9574 40 25.3644 40 18.8281ZM29.375 2.34375C33.5321 2.34375 37.6562 11.9858 37.6562 18.8281C37.6562 23.9354 35.4771 25.6405 30.5469 25.838V20.7296L34.6578 18.7078C35.2386 18.4222 35.4778 17.7198 35.1922 17.1391C34.9067 16.5583 34.2042 16.3191 33.6234 16.6047L30.5469 18.1177C30.5469 17.2402 30.5469 11.0987 30.5469 10.625C30.5469 9.97781 30.0222 9.45312 29.375 9.45312C28.7278 9.45312 28.2031 9.97781 28.2031 10.625V13.1228L26.5094 11.9937C25.9708 11.6347 25.2433 11.7802 24.8843 12.3187C24.5252 12.8572 24.6708 13.5848 25.2093 13.9437L28.2031 15.9397V25.8364C26.9104 25.7825 25.869 25.6327 25.0127 25.3748C25.5498 24.4899 25.8594 23.4523 25.8594 22.3438C25.8594 20.3188 24.8015 18.4673 23.1287 17.4103C23.3837 16.7457 23.5156 16.0369 23.5156 15.3125C23.5156 13.9751 23.0649 12.7411 22.3078 11.7537C23.2849 8.49789 25.9806 2.34375 29.375 2.34375ZM23.6335 37.6562H18.7102C18.243 35.3638 16.433 33.5539 14.1405 33.0866V28.0819C14.9877 27.905 15.7887 27.5387 16.4843 27.0101C17.4945 27.7777 18.7266 28.2031 20 28.2031C21.2024 28.2031 22.321 27.8386 23.2521 27.2149C24.8054 27.9071 26.5958 28.1241 28.2031 28.1831V33.0866C25.9106 33.5538 24.1008 35.3638 23.6335 37.6562ZM10.3354 24.6432C10.1128 24.3886 9.79125 24.2426 9.45312 24.2426C9.115 24.2426 8.79336 24.3887 8.57086 24.6432C7.90523 25.4048 6.89156 25.8594 5.85938 25.8594C3.92086 25.8594 2.34375 24.2823 2.34375 22.3438C2.34375 20.8636 3.29297 19.537 4.70578 19.0426C5.04898 18.9225 5.31695 18.6498 5.43125 18.3047C5.54555 17.9595 5.49305 17.5808 5.28922 17.2797C4.89563 16.698 4.6875 16.0177 4.6875 15.3125C4.6875 13.4068 6.3332 11.7969 8.28125 11.7969C8.92844 11.7969 9.45312 11.2722 9.45312 10.625C9.45312 8.68648 11.0302 7.10938 12.9688 7.10938C14.9073 7.10938 16.4844 8.68648 16.4844 10.625C16.4844 11.2722 17.0091 11.7969 17.6562 11.7969C19.5948 11.7969 21.1719 13.374 21.1719 15.3125C21.1719 16.0178 20.9638 16.698 20.5702 17.2797C20.3663 17.5808 20.3139 17.9595 20.4281 18.3047C20.5423 18.6499 20.8104 18.9225 21.1536 19.0426C22.5664 19.537 23.5156 20.8636 23.5156 22.3438C23.5156 24.2823 21.9385 25.8594 20 25.8594C18.9874 25.8594 18.0522 25.4275 17.3666 24.6432C17.1441 24.3886 16.8225 24.2426 16.4844 24.2426C16.1462 24.2426 15.8246 24.3887 15.6021 24.6432C14.9166 25.4275 13.9813 25.8594 12.9688 25.8594C11.9562 25.8594 11.0209 25.4275 10.3354 24.6432ZM5.85938 32.9688C7.12148 32.9688 8.33937 33.6601 8.96203 34.7301C9.17188 35.0907 9.55766 35.3125 9.97484 35.3125H12.9688C14.4965 35.3125 15.7991 36.2923 16.2828 37.6562H2.34375V36.4844C2.34375 34.5459 3.92086 32.9688 5.85938 32.9688ZM37.4547 37.6562H26.0609C26.5447 36.2923 27.8473 35.3125 29.375 35.3125H34.1406C35.6684 35.3125 36.9709 36.2923 37.4547 37.6562Z" fill="white"/>
</g>
<defs>
<clipPath id="clip0_131_790">
<rect width="40" height="40" fill="white"/>
</clipPath>
</defs>
</svg>
