<svg width="174" height="35" viewBox="0 0 174 35" fill="none" xmlns="http://www.w3.org/2000/svg">
<path d="M103.754 4.16035C104.422 4.08516 107.148 4.10695 108.005 4.12596C109.84 4.16664 112.412 4.0279 114.148 4.18385C114.89 4.25264 115.621 4.40979 116.325 4.65196C121.498 6.43847 122.428 13.7516 118.652 17.349C118.018 17.9534 117.378 18.2947 116.598 18.672C117.452 19.7025 121.354 24.5797 121.52 25.3764C121.561 25.5736 121.563 25.641 121.453 25.8088C120.872 26.0918 119.219 25.9953 118.524 25.9876C115.829 26.0314 116.06 25.6101 114.484 23.536C113.382 22.0786 112.288 20.6153 111.202 19.1459L108.099 19.1512C108.102 20.0632 108.246 25.3104 107.942 25.6725C107.784 25.8599 107.558 25.9459 107.317 25.9637C106.459 26.0272 104.123 26.2375 103.498 25.7048C103.251 24.7681 103.344 20.2176 103.344 18.9648L103.343 5.72847C103.349 4.93966 103.226 4.68041 103.754 4.16035ZM108.098 15.0266C109.359 15.0187 110.642 15.0271 111.903 15.0383C113.389 15.0514 114.054 15.0572 115.222 14.0585C115.768 13.3913 116.118 12.8261 116.158 11.9304C116.373 7.08906 111.421 8.4145 108.101 8.28772L108.098 15.0266Z" fill="white"/>
<path d="M93.4303 9.18824C99.0742 8.62502 102.685 13.1909 102.25 18.5496C101.846 23.5294 98.4977 26.6406 93.4422 26.352C91.6321 26.2487 90.2985 25.6635 89.1132 24.3134L89.1192 26.25C89.1048 27.4188 89.4397 30.0091 88.7606 30.9843C88.5885 31.2306 87.8076 31.3834 87.4422 31.3394C86.6987 31.2499 85.421 31.4643 84.8055 30.9928C84.6602 30.8713 84.6252 30.6132 84.6224 30.4235C84.5298 24.1427 84.6 17.8549 84.5885 11.5721C84.5878 11.1406 84.5418 10.0673 84.8496 9.78206C85.1404 9.51273 85.8025 9.46392 86.1951 9.48417C86.9284 9.57062 88.2951 9.29714 88.8674 9.7996C89.1692 10.0648 89.12 10.6771 89.1048 11.0437C90.318 9.80231 91.733 9.34977 93.4303 9.18824ZM94.3061 22.2277C96.7792 21.6983 98.3511 19.2597 97.8102 16.7897C97.2692 14.3198 94.8224 12.76 92.3536 13.3116C89.9009 13.8598 88.3528 16.2866 88.8903 18.741C89.4269 21.1953 91.8483 22.7538 94.3061 22.2277Z" fill="white"/>
<path d="M128.272 9.1882C128.392 9.17625 128.514 9.16888 128.636 9.16617C130.914 9.11693 132.319 9.51659 133.953 11.0833C133.935 11.0041 133.923 10.9235 133.917 10.8424C133.891 10.5281 133.857 10.0705 134.088 9.8221C134.431 9.45142 135.364 9.48075 135.844 9.4732C136.538 9.46227 137.721 9.35642 138.252 9.88422C138.523 10.1539 138.447 10.6819 138.448 11.0376C138.45 12.9386 138.599 25.3595 138.243 25.7011C137.721 26.2025 135.898 26.011 135.211 25.9878C134.881 25.9766 134.358 25.9971 134.12 25.7352C133.845 25.4307 133.921 24.8457 133.935 24.4652L132.984 25.3142C132.014 25.8782 130.932 26.2222 129.815 26.3218C128.62 26.4346 127.428 26.3078 126.276 25.9818C119.917 24.1825 118.871 14.6018 123.839 10.7702C125.194 9.72524 126.593 9.34337 128.272 9.1882ZM130.095 22.2908C132.62 22.0527 134.468 19.8048 134.212 17.2826C133.957 14.7603 131.695 12.9285 129.173 13.2011C126.676 13.4712 124.865 15.7051 125.118 18.203C125.372 20.7011 127.594 22.5268 130.095 22.2908Z" fill="white"/>
<path d="M63.6259 4.16633C64.3568 4.15494 66.8057 4.00576 67.5085 4.32246C67.6936 4.40583 67.8882 4.89062 67.8952 5.13885C67.9227 6.10863 67.8815 7.14642 67.8888 8.12594C67.9111 11.1468 67.8696 14.1814 67.9015 17.2C67.9159 18.5336 68.404 20.1251 69.4337 21.0415C71.1991 22.6128 74.6097 22.7101 76.2838 20.9402C76.64 20.5637 77.2006 20.0142 77.3813 19.5309C78.0582 17.7204 77.8542 15.3057 77.8531 13.3878L77.8398 6.61288C77.8381 6.08479 77.7864 4.76968 78.0637 4.44326C78.6213 3.98688 81.932 4.02621 82.3306 4.35698C82.8782 4.81133 82.6776 7.95588 82.6699 8.77119L82.6742 14.3779C82.6765 18.4548 82.7703 22.3545 78.8275 24.8213C74.5639 27.4887 67.432 26.8785 64.5368 22.4294C63.03 20.1138 63.0804 17.5692 63.0867 14.933L63.0981 9.94373C63.0941 8.32644 62.9933 6.41345 63.1473 4.80816C63.1777 4.49013 63.369 4.33133 63.6259 4.16633Z" fill="white"/>
<path d="M157.605 3.41089C158.35 3.40005 160.646 3.22705 161.351 3.63868C161.519 3.82312 161.643 4.54413 161.639 4.76423C161.573 8.59617 161.842 12.7002 161.581 16.508C163.026 14.4264 165.119 12.168 166.672 10.1483C167.38 9.22896 170.627 9.59896 171.697 9.70498C171.862 9.72142 171.965 10.021 172.006 10.1553C171.863 10.8307 166.844 16.5394 166.054 17.2844C167.429 18.8652 168.374 20.1357 169.628 21.7758C170.274 22.5995 170.962 23.3855 171.628 24.1922C171.979 24.6178 172.488 25.2349 172.213 25.7893C172.032 25.9093 171.652 26.0229 171.44 25.9952C169.542 25.7485 167.899 26.7123 166.581 24.9157C165.512 23.4583 164.238 22.1112 163.22 20.6442C162.785 21.305 162.17 21.9099 161.62 22.4854C161.653 23.2463 161.842 25.1112 161.418 25.6913C161.058 26.1841 157.748 26.1047 157.224 25.7149C157.031 24.7927 156.965 4.48334 157.146 3.87463C157.215 3.64064 157.402 3.5217 157.605 3.41089Z" fill="white"/>
<path d="M148.057 9.27121C149.484 9.12333 151.032 9.25663 152.353 9.8485C153.645 10.4283 154.414 11.3754 154.909 12.6859C155.126 13.261 155.295 13.8671 155.36 14.4793C155.506 15.8674 155.641 24.9616 155.29 25.6838C155.222 25.8255 155.162 25.8451 155.02 25.8954C154.456 26.0944 151.64 26.0749 151.154 25.8415C150.921 25.7302 150.827 25.2857 150.796 25.0619C150.703 24.3964 150.764 23.679 150.77 23.0071C150.787 21.2565 151.029 16.123 150.539 14.7434C150.313 14.1039 149.88 13.5304 149.255 13.2378C148.408 12.8414 147.34 12.9488 146.483 13.2527C145.777 13.6653 145.268 14.2026 144.967 14.97C144.151 17.0475 145.165 24.9102 144.336 25.8108C144.212 25.946 143.905 25.9721 143.733 25.9818C143.144 26.0147 140.774 26.1448 140.381 25.781C140.115 25.5349 140.114 25.2255 140.1 24.887C140.04 23.3997 139.963 10.1708 140.238 9.87587C140.521 9.57316 140.949 9.50375 141.346 9.4907C141.963 9.47062 143.943 9.33646 144.369 9.74689C144.659 10.0281 144.641 10.481 144.645 10.854C145.82 9.88934 146.586 9.5885 148.057 9.27121Z" fill="white"/>
<path d="M35.2352 3.67743C36.0747 3.73769 36.7923 3.89294 37.4754 4.41317C38.2171 4.97806 38.8224 6.01619 38.9327 6.94584C39.0268 7.74059 34.5767 25.2439 34.0062 27.1453C33.8384 27.7048 33.6423 28.3975 33.272 28.8596C32.5115 29.809 31.6525 30.2141 30.4567 30.3407C28.6412 30.2203 26.9612 29.0669 26.7551 27.265C26.5998 25.9081 27.5606 22.773 27.9154 21.3552C28.5418 18.7798 29.1964 16.2114 29.879 13.6503C30.5225 11.2096 31.0821 8.74881 31.7432 6.31228C32.2431 4.46959 33.4341 3.83389 35.2352 3.67743Z" fill="#BBC7FE"/>
<path d="M25.3552 3.15989C27.9512 2.93949 29.886 4.93509 29.346 7.5435C29.1119 8.67417 28.8262 9.7696 28.5455 10.8899L27.1069 16.6536C26.4849 19.2264 25.8385 21.7932 25.1677 24.3538C24.4257 27.186 24.5198 28.7735 21.494 29.7549C19.5049 29.9733 17.4192 28.4765 17.3049 26.5834C17.222 25.2121 18.2866 21.655 18.6331 20.2679C19.2909 17.5402 19.9807 14.8204 20.7027 12.1089C21.261 9.99231 21.7524 7.85625 22.3222 5.74288C22.7239 4.25349 23.8709 3.38615 25.3552 3.15989Z" fill="#0059FF"/>
<path d="M14.4011 13.4172C16.7991 13.3134 18.7321 15.1342 18.2885 17.5991C17.6675 20.5615 16.8421 23.5046 16.1409 26.4521C15.6699 28.4324 14.7856 29.1036 12.9902 29.7685C11.9837 29.7947 10.9751 29.6535 10.1475 28.996C7.58926 26.9636 9.47125 23.4039 9.97181 20.8306C10.4141 19.2054 10.7053 17.5003 11.2228 15.9009C11.7056 14.4085 12.951 13.5991 14.4011 13.4172Z" fill="#0059FF"/>
<path d="M43.815 3.67542C46.2325 3.82679 47.8321 5.71569 47.28 8.14261C46.5581 11.2251 45.8133 14.3183 44.9758 17.371C44.502 19.098 43.218 19.8414 41.5224 19.9634C39.0981 19.8646 37.3399 17.9621 37.9274 15.4957C38.672 12.3699 39.5104 9.24425 40.331 6.13744C40.7908 4.3964 42.1612 3.78562 43.815 3.67542Z" fill="#BBC7FE"/>
<path d="M4.78508 17.8256C5.34826 17.7676 6.53563 18.1004 6.99654 18.4243C9.33165 20.0655 8.4292 22.5665 7.87612 24.7647C7.20853 27.4179 7.03628 29.1361 4.05845 29.7939C-2.08248 29.7157 0.574571 22.4479 2.01343 19.2004C2.35731 18.4243 4.01966 17.9129 4.78508 17.8256Z" fill="#0059FF"/>
<path d="M52.4482 3.67426C53.2732 3.73626 54.0147 3.89098 54.6909 4.39617C55.4259 4.94522 55.8719 5.7952 55.9995 6.69535C56.1804 7.97125 54.9556 13.1739 54.1811 14.1978C53.4831 15.1204 52.504 15.425 51.4034 15.5761C50.4039 15.4769 49.6778 15.3626 48.867 14.6795C48.1548 14.0747 47.7156 13.2095 47.6479 12.2779C47.543 10.965 48.1726 9.4677 48.4889 8.1848C48.7526 7.11541 48.8768 5.82734 49.5917 4.96296C50.3583 4.03606 51.2896 3.76682 52.4482 3.67426Z" fill="#BBC7FE"/>
</svg>
