<svg width="40" height="40" viewBox="0 0 40 40" fill="none" xmlns="http://www.w3.org/2000/svg">
<path d="M38.4283 6.25028V3.90651C35.8428 3.90651 33.7394 6.00997 33.7394 8.59546V11.7734H31.3966V20.7481H33.7394V31.092C33.7394 32.5008 32.5932 33.6469 31.1844 33.6469H28.8951V9.42937H25.56L23.9973 4.74152H19.4323V2.34377H22.3204V0H14.2004V2.34377H17.0886V4.74152H12.5235L10.9609 9.42937H7.62579V12.5546H5.73023C3.43693 12.5546 1.57129 14.4203 1.57129 16.7135V32.7159C1.57129 35.0092 3.43701 36.8748 5.73023 36.8748H7.62579V40H28.8952V35.9907H31.1845C33.8856 35.9907 36.0832 33.7932 36.0832 31.092V20.748H38.4283V11.7733H36.0832V8.59538C36.0832 7.30232 37.1352 6.25028 38.4283 6.25028ZM9.96956 19.2438H26.5514V31.3029H9.96956V19.2438ZM14.2128 7.08529H22.308L23.0894 9.42937H13.4315L14.2128 7.08529ZM26.5514 11.7731V16.9001H9.96956V11.7731H26.5514ZM5.73023 34.5311C4.72928 34.5311 3.91506 33.7167 3.91506 32.7159V16.7136C3.91506 15.7127 4.72936 14.8985 5.73023 14.8985H7.62579V34.5311H5.73023V34.5311ZM9.96956 37.6562V33.6467H26.5514V37.6562H9.96956ZM36.0844 18.4042H33.7404V14.1171H36.0844V18.4042Z" fill="white"/>
<path d="M22.2377 22.9534L20.5805 21.2961L18.2605 23.6161L15.9405 21.2961L14.2832 22.9534L16.6032 25.2734L14.2832 27.5934L15.9405 29.2507L18.2605 26.9307L20.5805 29.2507L22.2377 27.5934L19.9177 25.2734L22.2377 22.9534Z" fill="white"/>
</svg>
