<svg width="40" height="40" viewBox="0 0 40 40" fill="none" xmlns="http://www.w3.org/2000/svg">
<g clip-path="url(#clip0_131_735)">
<path d="M23.3697 33.5363H23.2974C22.841 29.812 20.3271 26.6454 16.79 25.3667V3.40977C16.79 1.52961 15.2605 0 13.3803 0C11.5 0 9.97041 1.52953 9.97041 3.40977V25.3668C6.43291 26.6459 3.91939 29.8123 3.46299 33.5363H3.39064C1.60861 33.5363 0.158691 34.986 0.158691 36.768C0.158691 38.5501 1.60861 40 3.39064 40H23.3696C25.1517 40 26.6016 38.5502 26.6016 36.768C26.6016 34.986 25.1517 33.5363 23.3697 33.5363ZM13.3803 2.44898C13.9102 2.44898 14.3411 2.88 14.3411 3.40977V24.8139C13.7253 24.7549 13.0788 24.7507 12.4196 24.8139V3.40977C12.4196 2.88008 12.8504 2.44898 13.3803 2.44898ZM11.4999 27.4534C12.6034 27.1697 13.836 27.1321 15.031 27.3984C18.0922 28.0805 20.3378 30.5584 20.8246 33.5363H5.9358C6.4126 30.6198 8.56705 28.2052 11.4999 27.4534ZM23.3697 37.551H3.39064C2.959 37.551 2.60768 37.1998 2.60768 36.768C2.60768 36.3364 2.95893 35.9852 3.39064 35.9852H23.3696C23.8013 35.9852 24.1526 36.3363 24.1526 36.768C24.1526 37.1998 23.8014 37.551 23.3697 37.551Z" fill="white"/>
<path d="M34.0683 0.489854C33.2724 0.209464 32.4372 0.801417 32.4372 1.64478V6.12728H29.9515V1.64564C29.9515 0.801651 29.1155 0.210401 28.3204 0.490714C24.8679 1.70665 22.5483 4.98407 22.5483 8.64649C22.5483 12.2352 24.719 15.2698 27.785 16.5923V36.5902C27.785 38.4703 29.3146 39.9999 31.1948 39.9999C33.0751 39.9999 34.6046 38.4704 34.6046 36.5902V16.5923C37.6697 15.2701 39.8413 12.2363 39.8413 8.64649C39.8413 4.98345 37.5213 1.70556 34.0683 0.489854ZM33.0203 14.5699C32.5063 14.7279 32.1555 15.2026 32.1555 15.7403V36.5901C32.1555 37.1198 31.7245 37.5509 31.1947 37.5509C30.665 37.5509 30.2339 37.1199 30.2339 36.5901V15.7403C30.2339 15.2026 29.8831 14.7279 29.3691 14.5699C26.8795 13.8045 24.9971 11.4759 24.9971 8.64634C24.9971 6.65189 25.9565 4.81689 27.5023 3.66806V7.35173C27.5023 8.02798 28.0506 8.57618 28.7268 8.57618H33.6615C34.3377 8.57618 34.8859 8.0279 34.8859 7.35173V3.66712C36.4323 4.81595 37.392 6.6515 37.392 8.64649C37.3923 11.4719 35.514 13.8034 33.0203 14.5699Z" fill="white"/>
</g>
<defs>
<clipPath id="clip0_131_735">
<rect width="40" height="40" fill="white"/>
</clipPath>
</defs>
</svg>
