<svg width="40" height="40" viewBox="0 0 40 40" fill="none" xmlns="http://www.w3.org/2000/svg">
<path d="M39.9976 30.3747C39.9976 30.3637 39.9976 30.3539 39.9963 30.343C39.9951 30.3356 39.9951 30.3283 39.9939 30.321C39.9927 30.3088 39.9902 30.2978 39.9891 30.2856C39.9878 30.2795 39.9878 30.2734 39.9854 30.2673C39.983 30.2502 39.9793 30.2319 39.9756 30.2148L34.1406 6.88172C34.049 6.51063 33.7157 6.25 33.3325 6.25H6.66637C6.28426 6.25 5.95105 6.51063 5.85824 6.88172L0.0244533 30.2148C0.0196095 30.2319 0.0171095 30.2501 0.0134376 30.2673C0.0121876 30.2733 0.0121876 30.2794 0.00976568 30.2868C0.00851567 30.2978 0.00734379 30.3087 0.0049219 30.321C0.0049219 30.3283 0.0036719 30.3357 0.00250001 30.343C0.00250001 30.354 0.00125001 30.3637 0.00125001 30.3747C0 30.382 0 30.3905 0 30.3979C0 30.404 0 30.4101 0 30.4162V32.9162C0 33.1859 0.130626 33.4398 0.350315 33.5961C0.571253 33.7523 0.853286 33.7927 1.10837 33.7035L5.60542 32.1325L10.144 33.7035C10.3197 33.7658 10.5126 33.7645 10.6908 33.7035L15.2074 32.1325L19.7264 33.7035C19.9022 33.7658 20.0963 33.7658 20.2733 33.7035L24.7912 32.1325L29.3089 33.7035C29.4871 33.7658 29.68 33.7658 29.8558 33.7035L34.3748 32.1325L38.8926 33.7035C38.9818 33.7341 39.0745 33.7499 39.1661 33.7499C39.337 33.7499 39.5066 33.6974 39.6483 33.5961C39.8692 33.4398 39.9998 33.1859 39.9998 32.9162V30.4162C40 30.4101 40 30.404 40 30.3979C39.9987 30.3905 39.9987 30.382 39.9976 30.3747ZM37.9833 29.1235L34.6483 27.9626C34.4713 27.9016 34.2785 27.9016 34.1014 27.9626L30.282 29.2907L29.4531 22.6524L32.8589 21.4746L36.383 22.7196L37.9833 29.1235ZM34.5093 15.2246L35.8984 20.7813L33.1384 19.8065C32.9614 19.7436 32.7661 19.743 32.5878 19.8047L29.2407 20.9625L28.5144 15.1477L31.3696 14.1473L34.5093 15.2246ZM32.6831 7.91681L34.0283 13.2977L31.6382 12.4774C31.46 12.4164 31.2684 12.417 31.0914 12.4792L28.3032 13.4557L27.6098 7.91681H32.6831ZM20.8325 7.91688H25.9302L26.6114 13.3588L24.0601 12.4781C23.8844 12.4171 23.6915 12.4171 23.5157 12.4787L20.8325 13.4113V7.91688ZM20.8325 15.1758L23.7891 14.1474L26.8409 15.2021L27.5476 20.8502L24.5618 19.8059C24.3848 19.7437 24.1907 19.7437 24.0137 19.8053L20.8325 20.9113V15.1758ZM20.8325 22.6756L24.2859 21.4746L27.7783 22.6964L28.5888 29.1882L25.0659 27.9625C24.8877 27.9015 24.6948 27.9015 24.5178 27.9625L20.8325 29.2443V22.6756ZM14.0686 7.91688H19.1663V13.4113L16.4844 12.4787C16.3086 12.4171 16.1157 12.4171 15.9388 12.4781L13.3887 13.3588L14.0686 7.91688ZM19.1664 22.6757V29.2444L15.481 27.9625C15.3052 27.9015 15.1124 27.9015 14.9341 27.9625L11.41 29.1882L12.2218 22.6989L15.713 21.4747L19.1664 22.6757ZM13.158 15.202L16.2097 14.1473L19.1662 15.1758V20.9113L15.9863 19.8053C15.8081 19.7437 15.6152 19.7437 15.437 19.8059L12.4512 20.8521L13.158 15.202ZM7.317 7.91688H12.389L11.6969 13.4558L8.90872 12.4793C8.73169 12.417 8.53888 12.4164 8.36185 12.4775L5.97175 13.2978L7.317 7.91688ZM5.49081 15.2247L8.63044 14.1474L11.4844 15.1478L10.7594 20.9608L7.40973 19.8048C7.23153 19.7431 7.03863 19.7437 6.86043 19.8066L4.10166 20.7813L5.49081 15.2247ZM3.6158 22.7195L7.14121 21.4745L10.5469 22.6499L9.71685 29.2919L5.87777 27.9625C5.78863 27.932 5.69714 27.9161 5.60558 27.9161C5.51277 27.9161 5.41878 27.932 5.32972 27.9625L2.01673 29.121L3.6158 22.7195ZM38.3323 31.7444L34.6484 30.4626C34.4714 30.4015 34.2786 30.4015 34.1015 30.4626L29.5825 32.0336L25.0659 30.4626C24.8877 30.4015 24.6948 30.4015 24.5178 30.4626L20 32.0336L15.481 30.4626C15.3052 30.4015 15.1124 30.4015 14.9341 30.4626L10.4151 32.0348L5.87777 30.4626C5.78863 30.432 5.69714 30.4162 5.60558 30.4162C5.51277 30.4162 5.41878 30.432 5.32972 30.4626L1.66642 31.7431V31.0083L5.60558 29.6326L10.1441 31.2036V31.2048C10.1539 31.2073 10.1612 31.2097 10.1697 31.2122C10.1856 31.217 10.2027 31.2219 10.2198 31.2256C10.2296 31.228 10.2394 31.2305 10.2491 31.2317C10.265 31.2354 10.2821 31.239 10.298 31.2415C10.3028 31.2415 10.3077 31.2427 10.3126 31.2439C10.3212 31.2451 10.3297 31.2451 10.337 31.2463C10.3431 31.2463 10.348 31.2463 10.3541 31.2476C10.3749 31.2488 10.3956 31.25 10.4176 31.25C10.431 31.25 10.4444 31.2487 10.459 31.2476C10.4688 31.2476 10.4786 31.2476 10.4883 31.2463C10.503 31.2451 10.5176 31.2426 10.5335 31.2415C10.542 31.2402 10.5506 31.239 10.5591 31.2378C10.5738 31.2354 10.5884 31.2317 10.603 31.228C10.6128 31.2256 10.6213 31.2244 10.6299 31.2219C10.6446 31.2183 10.6568 31.2134 10.6714 31.2098C10.6775 31.2073 10.6836 31.2061 10.6909 31.2037L15.2075 29.6326L19.7265 31.2037C19.7289 31.2049 19.7339 31.2061 19.7375 31.2073C19.7486 31.211 19.7607 31.2147 19.7729 31.2183C19.7864 31.222 19.7998 31.2244 19.812 31.2281C19.8242 31.2305 19.8352 31.233 19.8462 31.2355C19.8621 31.2379 19.8779 31.2403 19.8926 31.2428C19.9024 31.2441 19.9121 31.2452 19.9219 31.2465C19.9488 31.2489 19.9732 31.2501 20 31.2501C20.0257 31.2501 20.0513 31.2489 20.0769 31.2465C20.0879 31.2452 20.0964 31.2441 20.1062 31.2428C20.1221 31.2404 20.1368 31.238 20.1526 31.2355C20.1636 31.233 20.1758 31.2306 20.188 31.2281C20.2002 31.2244 20.2124 31.222 20.2258 31.2183C20.238 31.2147 20.2502 31.211 20.2625 31.2073C20.2661 31.2061 20.2698 31.2049 20.2735 31.2037L24.7913 29.6326L29.3091 31.2037C29.3164 31.2061 29.3213 31.2073 29.3286 31.2098C29.342 31.2134 29.3555 31.2183 29.3701 31.2219C29.3786 31.2244 29.3872 31.2256 29.397 31.228C29.4117 31.2317 29.4263 31.2354 29.4409 31.2378C29.4494 31.239 29.458 31.2402 29.4677 31.2415C29.4824 31.2439 29.497 31.2451 29.5117 31.2463C29.5238 31.2476 29.5385 31.2476 29.5507 31.2487C29.5605 31.2487 29.5715 31.25 29.5824 31.25C29.6032 31.25 29.6239 31.2487 29.6459 31.2476C29.6507 31.2463 29.6581 31.2463 29.6642 31.2451C29.6715 31.2451 29.6788 31.2439 29.6861 31.2439C29.691 31.2426 29.6946 31.2415 29.6995 31.2415C29.7167 31.239 29.7349 31.2354 29.752 31.2317C29.7606 31.2305 29.7703 31.228 29.7801 31.2256C29.796 31.2219 29.8131 31.2171 29.8289 31.2122C29.8387 31.2098 29.846 31.2073 29.8558 31.2037L34.3748 29.6326L38.3323 31.0096V31.7444Z" fill="white"/>
</svg>
